 <svg viewBox="0 0 400 400" xmlns="http://www.w3.org/2000/svg">

    <g opacity="0.2">
        <path
        d="M50 100 L100 50 L150 80 L200 60 L250 90 L300 70 L350 100"
        stroke="#4F86F7"
        strokeWidth="2"
        fill="none"
        />
        <rect
        x="50"
        y="120"
        width="20"
        height="100"
        fill="#4F86F7"
        rx="2"
        />
        <rect
        x="80"
        y="150"
        width="20"
        height="70"
        fill="#4F86F7"
        rx="2"
        />
        <rect
        x="110"
        y="130"
        width="20"
        height="90"
        fill="#4F86F7"
        rx="2"
        />
        <rect
        x="140"
        y="100"
        width="20"
        height="120"
        fill="#4F86F7"
        rx="2"
        />
        <rect
        x="170"
        y="80"
        width="20"
        height="140"
        fill="#4F86F7"
        rx="2"
        />

        <rect
        x="280"
        y="120"
        width="10"
        height="80"
        fill="#4F86F7"
        rx="2"
        />
        <rect
        x="300"
        y="100"
        width="10"
        height="100"
        fill="#4F86F7"
        rx="2"
        />
        <rect
        x="320"
        y="130"
        width="10"
        height="70"
        fill="#4F86F7"
        rx="2"
        />
        <rect
        x="340"
        y="110"
        width="10"
        height="90"
        fill="#4F86F7"
        rx="2"
        />
    </g>

    {/* Donut Chart */}
    <g transform="translate(320, 70)">
        <circle cx="0" cy="0" r="30" fill="#E6F5FF" />
        <path d="M0 -30 A30 30 0 0 1 26 15 L0 0 Z" fill="#4F86F7" />
        <path d="M0 -30 A30 30 0 0 0 -26 15 L0 0 Z" fill="#84B6F9" />
        <circle cx="0" cy="0" r="15" fill="white" />
        <text
        x="0"
        y="5"
        textAnchor="middle"
        fill="#4F86F7"
        fontSize="12"
        fontWeight="bold"
        >
        $
        </text>
    </g>

    {/* Coin Stacks */}
    <g transform="translate(200, 300)">
        {/* Stack 1 */}
        <g transform="translate(-80, 0)">
        <circle
            cx="0"
            cy="0"
            r="20"
            fill="#FFD700"
            stroke="#E6B800"
            strokeWidth="2"
        />
        <circle
            cx="0"
            cy="-8"
            r="20"
            fill="#FFD700"
            stroke="#E6B800"
            strokeWidth="2"
        />
        <circle
            cx="0"
            cy="-16"
            r="20"
            fill="#FFD700"
            stroke="#E6B800"
            strokeWidth="2"
        />
        <text
            x="0"
            y="5"
            textAnchor="middle"
            fill="white"
            fontSize="16"
            fontWeight="bold"
        >
            $
        </text>
        </g>

        {/* Stack 2 */}
        <g transform="translate(80, 0)">
        <circle
            cx="0"
            cy="0"
            r="20"
            fill="#FFD700"
            stroke="#E6B800"
            strokeWidth="2"
        />
        <circle
            cx="0"
            cy="-8"
            r="20"
            fill="#FFD700"
            stroke="#E6B800"
            strokeWidth="2"
        />
        <text
            x="0"
            y="5"
            textAnchor="middle"
            fill="white"
            fontSize="16"
            fontWeight="bold"
        >
            $
        </text>
        </g>

        {/* Individual Coins */}
        <g>
        <circle
            cx="-40"
            cy="20"
            r="20"
            fill="#FFD700"
            stroke="#E6B800"
            strokeWidth="2"
        />
        <text
            x="-40"
            y="25"
            textAnchor="middle"
            fill="white"
            fontSize="16"
            fontWeight="bold"
        >
            $
        </text>

        <circle
            cx="0"
            cy="30"
            r="20"
            fill="#FFD700"
            stroke="#E6B800"
            strokeWidth="2"
        />
        <text
            x="0"
            y="35"
            textAnchor="middle"
            fill="white"
            fontSize="16"
            fontWeight="bold"
        >
            $
        </text>

        <circle
            cx="40"
            cy="20"
            r="20"
            fill="#FFD700"
            stroke="#E6B800"
            strokeWidth="2"
        />
        <text
            x="40"
            y="25"
            textAnchor="middle"
            fill="white"
            fontSize="16"
            fontWeight="bold"
        >
            $
        </text>
        </g>
    </g>

    {/* Piggy Bank */}
    <g transform="translate(200, 220)">
        {/* Body */}
        <ellipse cx="0" cy="0" rx="75" ry="65" fill="#4F86F7" />

        {/* Ears */}
        <ellipse
        cx="-60"
        cy="-40"
        rx="20"
        ry="25"
        fill="#3A75E0"
        transform="rotate(-20 -60 -40)"
        />
        <ellipse
        cx="60"
        cy="-40"
        rx="20"
        ry="25"
        fill="#3A75E0"
        transform="rotate(20 60 -40)"
        />

        {/* Face */}
        <ellipse cx="0" cy="-5" rx="70" ry="55" fill="#5C93F8" />

        {/* Nose */}
        <ellipse cx="0" cy="10" rx="20" ry="15" fill="#3A75E0" />
        <ellipse
        cx="-8"
        cy="5"
        rx="5"
        ry="4"
        fill="white"
        opacity="0.6"
        />

        {/* Nostrils */}
        <ellipse cx="-7" cy="15" rx="5" ry="4" fill="#2A65D0" />
        <ellipse cx="7" cy="15" rx="5" ry="4" fill="#2A65D0" />

        {/* Eyes */}
        <ellipse cx="-25" cy="-15" rx="10" ry="12" fill="#003399" />
        <ellipse cx="25" cy="-15" rx="10" ry="12" fill="#003399" />
        <ellipse cx="-28" cy="-18" rx="3" ry="3" fill="white" />
        <ellipse cx="22" cy="-18" rx="3" ry="3" fill="white" />

        {/* Cheeks */}
        <ellipse
        cx="-40"
        cy="10"
        rx="10"
        ry="8"
        fill="#3A75E0"
        opacity="0.7"
        />
        <ellipse
        cx="40"
        cy="10"
        rx="10"
        ry="8"
        fill="#3A75E0"
        opacity="0.7"
        />

        {/* Coin Slot */}
        <rect
        x="-15"
        y="-50"
        width="30"
        height="5"
        rx="2"
        fill="#2A65D0"
        />

        {/* Tail */}
        <path d="M70 10 Q90 30 70 40 Q80 30 70 10" fill="#3A75E0" />

        {/* Highlight */}
        <ellipse
        cx="-40"
        cy="-25"
        rx="15"
        ry="10"
        fill="white"
        opacity="0.2"
        />
    </g>

    {/* Dollar Sign */}
    <g transform="translate(200, 150)">
        <circle
        cx="0"
        cy="0"
        r="25"
        fill="#FFD700"
        stroke="#E6B800"
        strokeWidth="3"
        />
        <text
        x="0"
        y="7"
        textAnchor="middle"
        fill="white"
        fontSize="24"
        fontWeight="bold"
        >
        $
        </text>
    </g>
</svg>